<?xml version="1.0" standalone="no"?>
<!DOCTYPE svg PUBLIC "-//W3C//DTD SVG 20010904//EN"
 "http://www.w3.org/TR/2001/REC-SVG-20010904/DTD/svg10.dtd">
<svg version="1.0" xmlns="http://www.w3.org/2000/svg"
 width="128.000000pt" height="128.000000pt" viewBox="0 0 128.000000 128.000000"
 preserveAspectRatio="xMidYMid meet">

<g transform="translate(0.000000,128.000000) scale(0.100000,-0.100000)"
fill="#000000" stroke="none">
<path d="M454 1270 c-88 -35 -130 -217 -105 -448 l12 -109 -52 -69 c-28 -38
-55 -70 -60 -72 -19 -7 -79 40 -79 62 0 38 -28 66 -65 66 -28 0 -37 6 -50 30
-43 83 11 139 159 164 50 8 71 16 71 26 0 12 -11 14 -50 12 -80 -5 -153 -30
-193 -67 -33 -30 -37 -39 -37 -82 0 -32 7 -59 20 -78 11 -17 20 -45 21 -64 1
-41 27 -63 69 -60 19 2 46 -7 72 -24 l42 -27 -40 -84 c-69 -143 -63 -253 14
-289 19 -9 46 -17 60 -17 13 0 30 -7 37 -15 25 -30 100 -9 100 29 0 6 29 26
65 44 l65 32 36 -57 c47 -73 125 -148 169 -163 112 -37 185 55 201 250 l7 77
77 7 c106 9 175 31 218 71 33 30 37 39 37 82 0 32 -7 59 -20 78 -11 17 -20 45
-21 64 -1 41 -27 63 -69 60 -19 -2 -46 7 -73 24 l-42 27 34 68 c19 38 40 95
47 128 39 188 -87 245 -307 140 -71 -33 -73 -34 -90 -15 -22 24 -37 14 -30
-19 5 -24 -2 -33 -65 -80 l-72 -53 -68 7 c-58 6 -69 4 -69 -9 0 -18 21 -27 61
-27 16 0 29 -4 29 -8 0 -15 -120 -126 -127 -118 -5 4 -8 83 -8 174 0 155 2
171 24 220 28 63 52 82 103 82 43 0 57 14 29 29 -23 13 -58 13 -87 1z m623
-196 c23 -23 25 -31 21 -88 -5 -63 -69 -221 -86 -214 -5 1 -44 18 -89 37 l-80
33 -34 82 c-19 44 -35 84 -37 88 -2 4 16 17 40 29 126 65 221 77 265 33z
m-310 -147 c14 -31 24 -59 22 -61 -5 -5 -169 37 -169 44 0 8 104 79 113 77 4
-1 20 -28 34 -60z m-61 -83 c49 -14 94 -31 101 -37 15 -15 63 -180 63 -215 0
-19 -17 -44 -57 -84 -45 -45 -55 -60 -45 -70 10 -10 23 -2 62 37 27 27 51 47
54 44 2 -2 7 -34 11 -71 7 -68 7 -68 -18 -68 -50 0 -254 39 -332 64 l-81 25
-27 98 c-15 54 -27 109 -27 123 0 36 145 180 181 180 15 0 67 -12 115 -26z
m226 -81 c39 -17 57 -31 54 -40 -7 -18 -70 -102 -77 -103 -3 0 -13 33 -23 73
-10 39 -20 78 -23 85 -7 17 2 15 69 -15z m144 -74 c22 -13 34 -28 34 -43 0
-38 28 -66 65 -66 28 0 37 -6 50 -30 48 -93 -27 -155 -206 -167 l-77 -6 -6 39
c-22 149 -23 143 36 222 29 39 57 72 62 72 5 0 24 -9 42 -21z m-679 -111 c11
-46 19 -85 18 -86 -2 -2 -31 9 -65 24 -40 18 -59 32 -56 41 7 17 70 102 76
103 3 0 15 -37 27 -82z m-40 -107 l80 -33 34 -82 c19 -44 35 -84 37 -88 2 -4
-22 -20 -53 -35 -47 -23 -59 -25 -75 -15 -30 19 -59 14 -84 -13 -30 -32 -60
-32 -93 1 -23 23 -25 31 -21 88 5 63 69 221 86 214 5 -1 44 -18 89 -37z m241
-80 c74 -19 151 -33 255 -46 l47 -6 0 -52 c0 -29 -6 -77 -14 -108 -25 -107
-68 -151 -132 -135 -35 9 -141 115 -169 170 l-20 38 24 17 c57 37 67 49 54 62
-10 10 -20 7 -51 -14 -21 -15 -41 -27 -45 -27 -8 0 -57 106 -57 122 0 6 7 7
16 4 8 -3 50 -15 92 -25z"/>
<path d="M573 750 c-85 -51 -81 -179 6 -225 61 -31 136 -11 171 48 70 114 -63
247 -177 177z"/>
<path d="M615 1228 c-27 -15 -35 -28 -35 -60 0 -35 39 -63 75 -54 52 13 59 92
10 114 -30 14 -25 14 -50 0z"/>
</g>
</svg>
