<svg width="246" height="42" viewBox="0 0 246 42" fill="none" xmlns="http://www.w3.org/2000/svg">
<path d="M163.442 0H157.416H156.78L151.425 5.8938H163.83L169.186 0H163.442Z" fill="white"/>
<path d="M232.491 0H231.808H216.637H210.43L205.032 5.8938H227.151L232.491 0Z" fill="white"/>
<path d="M131.581 41.2761H152.422L157.961 35.3784H136.956L131.581 41.2761Z" fill="white"/>
<path d="M217.955 41.2761H239.827L245.202 35.3784H223.491L217.955 41.2761Z" fill="white"/>
<path d="M19.9182 41.2761H29.1339L48.3538 0H39.3029L19.9182 41.2761Z" fill="white"/>
<path d="M97.5198 1.14429L92.2431 6.75983C92.2821 6.94269 92.3006 7.12936 92.298 7.31631V33.3799C92.298 34.6927 91.5134 35.3784 89.8185 35.3784H78.6334L73.0938 41.2565H91.6977C97.8991 41.2565 101 38.7551 101 33.7521V7.49656C100.987 4.45039 99.8267 2.33297 97.5198 1.14429Z" fill="white"/>
<path d="M67.6366 40.1357L72.9133 34.5162C72.8729 34.3335 72.8532 34.1468 72.8545 33.9597V7.90011C72.8545 6.58342 73.6626 5.89764 75.3339 5.89764H86.935L92.4746 0.0195312H73.4743C67.2756 0.0195312 64.1763 2.52098 64.1763 7.52391V33.7795C64.1763 36.8283 65.3297 38.947 67.6366 40.1357Z" fill="white"/>
<path d="M121.499 41.2761H125.21L130.181 35.3784V0H121.499V41.2761Z" fill="white"/>
<path d="M170.767 5.40787V41.2761H179.449V5.89379H191.054L196.479 0H175.576L170.767 5.40787Z" fill="white"/>
<path d="M244.598 0L238.772 0.00392257L205.538 35.9584V41.2761H211.6L244.598 5.31381V0Z" fill="white"/>
<path d="M9.0509 0H0L17.1367 36.8087L21.7112 27.2235L9.0509 0Z" fill="white"/>
</svg>
