<svg width="151" height="150" viewBox="0 0 151 150" fill="none" xmlns="http://www.w3.org/2000/svg">
<g clip-path="url(#clip0_1863_679)">
<path d="M75.3073 60.0803L58.7023 27.0076H43.6538L75.3073 90.0527L86.6051 67.5504L79.0797 52.5642L75.3073 60.0803Z" fill="white"/>
<path d="M135.566 0L105.402 60.0464L105.411 60.0658L105.402 60.0803L75.3073 0.133007L75.3723 0H75.24H0L75.3073 150L101.651 97.5253L94.1281 82.5366L75.3073 120.028L21.8281 13.5086H66.9735L105.402 90.0527L150.612 0H135.566Z" fill="white"/>
<path d="M101.687 37.503L101.707 37.5393L120.515 -0.00488281H105.469L94.1041 22.6304L101.627 37.6239L101.687 37.503Z" fill="white"/>
</g>
<defs>
<clipPath id="clip0_1863_679">
<rect width="150.612" height="150" fill="white"/>
</clipPath>
</defs>
</svg>
